<?xml version="1.0" standalone="no"?>
<!DOCTYPE svg PUBLIC "-//W3C//DTD SVG 20010904//EN"
 "http://www.w3.org/TR/2001/REC-SVG-20010904/DTD/svg10.dtd">
<svg version="1.0" xmlns="http://www.w3.org/2000/svg"
 width="391.000000pt" height="391.000000pt" viewBox="0 0 391.000000 391.000000"
 preserveAspectRatio="xMidYMid meet">
<metadata>
Created by potrace 1.14, written by Peter Selinger 2001-2017
</metadata>
<g transform="translate(0.000000,391.000000) scale(0.100000,-0.100000)"
fill="#000000" stroke="none">
<path d="M1810 3896 c-182 -40 -314 -113 -461 -253 -83 -79 -157 -180 -208
-281 -32 -63 -87 -219 -96 -271 -12 -75 -18 -134 -19 -208 l-2 -81 -51 -54
c-68 -69 -103 -117 -147 -203 -32 -63 -41 -73 -88 -95 -68 -31 -175 -139 -210
-210 -56 -114 -69 -273 -34 -405 69 -254 304 -516 576 -642 90 -42 116 -52
185 -71 160 -46 312 -51 463 -17 40 9 76 14 80 10 4 -3 7 -224 8 -490 l1 -485
-156 -2 c-149 -3 -156 -4 -165 -24 -8 -18 -22 -23 -69 -29 -112 -12 -137 -37
-51 -50 25 -3 56 -8 67 -11 132 -25 1030 -25 1164 0 12 3 42 8 67 11 26 4 49
11 51 16 13 20 -48 34 -195 45 -63 5 -90 11 -106 25 -17 16 -37 19 -132 19
l-112 0 -1 148 c0 81 -1 170 -1 197 0 70 1 77 10 71 13 -8 137 29 194 57 131
65 197 171 207 333 1 6 31 19 69 29 310 84 586 307 717 580 98 204 98 419 -1
576 -40 64 -122 140 -190 176 -42 23 -63 41 -73 65 -30 69 -84 150 -138 209
l-57 61 18 46 c54 142 66 269 36 388 -39 151 -125 257 -271 333 -22 11 -42 37
-67 86 -20 39 -39 72 -42 75 -3 3 -17 21 -30 40 -90 131 -245 235 -420 281
-63 16 -254 19 -320 5z m412 -2943 c13 -3 73 -8 135 -10 l112 -5 -5 -42 c-15
-111 -121 -201 -269 -229 l-30 -5 0 154 c0 140 1 153 17 149 9 -3 27 -8 40
-12z"/>
</g>
</svg>
